<?xml version="1.0" encoding="utf-8"?>
<!-- Generator: Adobe Illustrator 21.0.0, SVG Export Plug-In . SVG Version: 6.00 Build 0)  -->
<svg version="1.1" id="Layer_1" xmlns="http://www.w3.org/2000/svg" xmlns:xlink="http://www.w3.org/1999/xlink" x="0px" y="0px"
	 viewBox="0 0 14400 14400" style="enable-background:new 0 0 14400 14400;" xml:space="preserve">
<style type="text/css">
	.st0{fill:#FF5783;}
</style>
<g>
	<path class="st0" d="M7141,7231.1v-102.8h-17v-16.5h35.5v84.9l35.4-28.2h-15.7v-15.3h52.2v15.3H7217l-35.4,29.5l33.3,33.2h16.6
		v16.5h-24.3l-47.6-47.6v31.1h16.3v16.5H7124v-16.5H7141z"/>
	<path class="st0" d="M7230.1,7288.2v-16.8c3.1,0.4,6.1,0.6,9,0.6c4.9,0,8.5-0.7,11-2.2c2.4-1.5,4.1-3.7,4.9-6.5
		c0.8-2.9,1.2-11.8,1.2-26.7v-67h-14.8v-16.5h33.4v80.5c0,16.2-0.5,27.5-1.6,33.9c-1,6.4-4.1,11.6-9.3,15.7
		c-5.1,4.1-12.8,6.1-22.9,6.1C7237.2,7289.2,7233.5,7288.9,7230.1,7288.2z M7253.5,7120.9c0-3.1,1.1-5.7,3.3-7.9
		c2.2-2.2,4.8-3.3,7.9-3.3c3.1,0,5.8,1.1,8,3.2c2.2,2.1,3.3,4.8,3.3,7.9s-1.1,5.8-3.3,8c-2.2,2.2-4.9,3.3-7.9,3.3
		c-3.2,0-5.9-1.1-8-3.4S7253.5,7123.9,7253.5,7120.9z"/>
</g>
</svg>
